<svg width="49" height="48" viewBox="0 0 49 48" fill="none" xmlns="http://www.w3.org/2000/svg">
<path fill-rule="evenodd" clip-rule="evenodd" d="M0 24C0 10.7452 10.8198 0 24.1667 0C37.5135 0 48.3333 10.7452 48.3333 24C48.3333 37.2548 37.5135 48 24.1667 48C10.8198 48 0 37.2548 0 24ZM24.1679 11.2C20.6674 11.2 20.2281 11.2152 18.8533 11.2773C17.4812 11.3397 16.5446 11.5555 15.725 11.872C14.8773 12.1989 14.1582 12.6363 13.4418 13.348C12.7248 14.0595 12.2845 14.7736 11.9542 15.6152C11.6346 16.4294 11.4171 17.3598 11.3554 18.7219C11.2939 20.0873 11.2778 20.5238 11.2778 24.0001C11.2778 27.4764 11.2934 27.9114 11.3556 29.2767C11.4188 30.6394 11.636 31.5695 11.9545 32.3834C12.2839 33.2253 12.7243 33.9394 13.441 34.6509C14.1571 35.3629 14.8762 35.8013 15.7234 36.1283C16.5435 36.4448 17.4804 36.6605 18.8522 36.7229C20.2271 36.7851 20.6661 36.8003 24.1663 36.8003C27.667 36.8003 28.1049 36.7851 29.4798 36.7229C30.8519 36.6605 31.7896 36.4448 32.6096 36.1283C33.4571 35.8013 34.1751 35.3629 34.8913 34.6509C35.6082 33.9394 36.0486 33.2253 36.3789 32.3837C36.6957 31.5695 36.9132 30.6391 36.9777 29.277C37.0394 27.9116 37.0556 27.4764 37.0556 24.0001C37.0556 20.5238 37.0394 20.0876 36.9777 18.7222C36.9132 17.3595 36.6957 16.4294 36.3789 15.6155C36.0486 14.7736 35.6082 14.0595 34.8913 13.348C34.1743 12.636 33.4574 12.1987 32.6088 11.872C31.7872 11.5555 30.85 11.3397 29.4779 11.2773C28.1031 11.2152 27.6654 11.2 24.1638 11.2H24.1679Z" fill="#434343"/>
<path fill-rule="evenodd" clip-rule="evenodd" d="M23.0116 13.5067C23.3548 13.5062 23.7377 13.5067 24.1679 13.5067C27.6092 13.5067 28.0171 13.519 29.3761 13.5803C30.6328 13.6374 31.3148 13.8459 31.7692 14.0211C32.3707 14.2531 32.7995 14.5304 33.2503 14.9784C33.7015 15.4264 33.9807 15.8531 34.2149 16.4505C34.3913 16.9011 34.6015 17.5785 34.6587 18.8265C34.7205 20.1758 34.7339 20.5812 34.7339 23.9972C34.7339 27.4132 34.7205 27.8186 34.6587 29.1679C34.6013 30.4159 34.3913 31.0933 34.2149 31.5439C33.9813 32.1413 33.7015 32.5666 33.2503 33.0144C32.7992 33.4624 32.3709 33.7397 31.7692 33.9717C31.3154 34.1477 30.6328 34.3557 29.3761 34.4128C28.0174 34.4741 27.6092 34.4874 24.1679 34.4874C20.7262 34.4874 20.3184 34.4741 18.9596 34.4128C17.703 34.3552 17.0209 34.1466 16.5663 33.9714C15.9648 33.7394 15.5352 33.4621 15.0841 33.0141C14.633 32.5661 14.3537 32.1405 14.1195 31.5429C13.9431 31.0922 13.7329 30.4149 13.6757 29.1669C13.6139 27.8175 13.6016 27.4122 13.6016 23.994C13.6016 20.5758 13.6139 20.1726 13.6757 18.8233C13.7331 17.5753 13.9431 16.8979 14.1195 16.4467C14.3532 15.8494 14.633 15.4227 15.0841 14.9747C15.5352 14.5267 15.9648 14.2494 16.5663 14.0168C17.0206 13.8408 17.703 13.6328 18.9596 13.5755C20.1486 13.5222 20.6094 13.5062 23.0116 13.5035V13.5067ZM31.0479 15.632C30.194 15.632 29.5012 16.3193 29.5012 17.1675C29.5012 18.0155 30.194 18.7035 31.0479 18.7035C31.9018 18.7035 32.5946 18.0155 32.5946 17.1675C32.5946 16.3195 31.9018 15.632 31.0479 15.632ZM24.1679 17.4267C20.5125 17.4267 17.5488 20.37 17.5488 24.0001C17.5488 27.6303 20.5125 30.5722 24.1679 30.5722C27.8233 30.5722 30.7858 27.6303 30.7858 24.0001C30.7858 20.37 27.8233 17.4267 24.1679 17.4267Z" fill="#434343"/>
<path fill-rule="evenodd" clip-rule="evenodd" d="M24.1679 19.7334C26.5405 19.7334 28.4642 21.6436 28.4642 24.0001C28.4642 26.3564 26.5405 28.2668 24.1679 28.2668C21.795 28.2668 19.8715 26.3564 19.8715 24.0001C19.8715 21.6436 21.795 19.7334 24.1679 19.7334Z" fill="#434343"/>
</svg>
